G04 #@! TF.FileFunction,Copper,L1,Top,Signal*
%FSLAX46Y46*%
G04 Gerber Fmt 4.6, Leading zero omitted, Abs format (unit mm)*
G04 Created by KiCad (PCBNEW 4.0.7) date 02/27/18 09:42:24*
%MOMM*%
%LPD*%
G01*
G04 APERTURE LIST*
%ADD10C,0.100000*%
%ADD11R,1.700000X1.700000*%
%ADD12O,1.700000X1.700000*%
%ADD13C,0.250000*%
G04 APERTURE END LIST*
D10*
D11*
X182880000Y-127000000D03*
D12*
X180340000Y-127000000D03*
D11*
X185420000Y-119380000D03*
D12*
X185420000Y-116840000D03*
X185420000Y-114300000D03*
X185420000Y-111760000D03*
X185420000Y-109220000D03*
X185420000Y-106680000D03*
X185420000Y-104140000D03*
X185420000Y-101600000D03*
X185420000Y-99060000D03*
X185420000Y-96520000D03*
X185420000Y-93980000D03*
X185420000Y-91440000D03*
X185420000Y-88900000D03*
X185420000Y-86360000D03*
X185420000Y-83820000D03*
D11*
X208280000Y-116840000D03*
D12*
X208280000Y-114300000D03*
X208280000Y-111760000D03*
X208280000Y-109220000D03*
X208280000Y-106680000D03*
X208280000Y-104140000D03*
X208280000Y-101600000D03*
X208280000Y-99060000D03*
D11*
X200660000Y-99060000D03*
D12*
X200660000Y-101600000D03*
X200660000Y-104140000D03*
X200660000Y-106680000D03*
X200660000Y-109220000D03*
X200660000Y-111760000D03*
X200660000Y-114300000D03*
X200660000Y-116840000D03*
D11*
X193040000Y-109220000D03*
D12*
X193040000Y-106680000D03*
D11*
X213360000Y-106680000D03*
D12*
X213360000Y-109220000D03*
D11*
X198120000Y-83820000D03*
D12*
X200660000Y-83820000D03*
X198120000Y-86360000D03*
X200660000Y-86360000D03*
X198120000Y-88900000D03*
X200660000Y-88900000D03*
X198120000Y-91440000D03*
X200660000Y-91440000D03*
D11*
X195580000Y-127000000D03*
D12*
X193040000Y-127000000D03*
X190500000Y-127000000D03*
D11*
X172720000Y-127000000D03*
D12*
X170180000Y-127000000D03*
D11*
X170180000Y-83820000D03*
D12*
X170180000Y-86360000D03*
X170180000Y-88900000D03*
X170180000Y-91440000D03*
X170180000Y-93980000D03*
X170180000Y-96520000D03*
X170180000Y-99060000D03*
X170180000Y-101600000D03*
X170180000Y-104140000D03*
X170180000Y-106680000D03*
X170180000Y-109220000D03*
X170180000Y-111760000D03*
X170180000Y-114300000D03*
X170180000Y-116840000D03*
X170180000Y-119380000D03*
D13*
X182880000Y-127000000D02*
X182880000Y-111760000D01*
X182880000Y-111760000D02*
X185420000Y-111760000D01*
X190500000Y-127000000D02*
X182880000Y-127000000D01*
X180340000Y-127000000D02*
X172720000Y-127000000D01*
X195580000Y-127000000D02*
X195580000Y-119380000D01*
X195580000Y-119380000D02*
X185420000Y-109220000D01*
X200660000Y-114300000D02*
X193040000Y-114300000D01*
X187960000Y-104140000D02*
X185420000Y-104140000D01*
X190500000Y-106680000D02*
X187960000Y-104140000D01*
X190500000Y-111760000D02*
X190500000Y-106680000D01*
X193040000Y-114300000D02*
X190500000Y-111760000D01*
X200660000Y-101600000D02*
X185420000Y-101600000D01*
X208280000Y-116840000D02*
X203200000Y-116840000D01*
X187960000Y-99060000D02*
X185420000Y-99060000D01*
X190500000Y-96520000D02*
X187960000Y-99060000D01*
X203200000Y-96520000D02*
X190500000Y-96520000D01*
X203200000Y-116840000D02*
X203200000Y-96520000D01*
X208280000Y-114300000D02*
X204978000Y-114300000D01*
X186436000Y-94996000D02*
X185420000Y-93980000D01*
X204724000Y-94996000D02*
X186436000Y-94996000D01*
X204978000Y-95250000D02*
X204724000Y-94996000D01*
X204978000Y-114300000D02*
X204978000Y-95250000D01*
X198120000Y-86360000D02*
X195580000Y-86360000D01*
X190500000Y-91440000D02*
X185420000Y-91440000D01*
X195580000Y-86360000D02*
X190500000Y-91440000D01*
X200660000Y-86360000D02*
X203200000Y-86360000D01*
X187960000Y-88900000D02*
X185420000Y-88900000D01*
X191770000Y-85090000D02*
X187960000Y-88900000D01*
X195580000Y-81280000D02*
X191770000Y-85090000D01*
X203200000Y-81280000D02*
X195580000Y-81280000D01*
X203200000Y-86360000D02*
X203200000Y-81280000D01*
X200660000Y-88900000D02*
X203200000Y-88900000D01*
X189230000Y-86360000D02*
X185420000Y-86360000D01*
X195580000Y-80010000D02*
X189230000Y-86360000D01*
X204470000Y-80010000D02*
X195580000Y-80010000D01*
X204470000Y-87630000D02*
X204470000Y-80010000D01*
X203200000Y-88900000D02*
X204470000Y-87630000D01*
X208280000Y-111760000D02*
X210820000Y-109220000D01*
X210820000Y-109220000D02*
X213360000Y-109220000D01*
X208280000Y-104140000D02*
X210820000Y-106680000D01*
X210820000Y-106680000D02*
X213360000Y-106680000D01*
X193040000Y-127000000D02*
X193040000Y-129540000D01*
X167640000Y-111760000D02*
X170180000Y-111760000D01*
X167640000Y-129540000D02*
X167640000Y-111760000D01*
X193040000Y-129540000D02*
X167640000Y-129540000D01*
X200660000Y-104140000D02*
X198120000Y-104140000D01*
X195580000Y-106680000D02*
X193040000Y-106680000D01*
X198120000Y-104140000D02*
X195580000Y-106680000D01*
X200660000Y-109220000D02*
X200660000Y-106680000D01*
X200660000Y-111760000D02*
X198120000Y-111760000D01*
X195580000Y-109220000D02*
X193040000Y-109220000D01*
X198120000Y-111760000D02*
X195580000Y-109220000D01*
X170180000Y-119380000D02*
X170180000Y-127000000D01*
X198120000Y-88900000D02*
X195580000Y-91440000D01*
X172720000Y-83820000D02*
X170180000Y-83820000D01*
X177800000Y-78740000D02*
X172720000Y-83820000D01*
X200660000Y-78740000D02*
X177800000Y-78740000D01*
X205740000Y-78740000D02*
X200660000Y-78740000D01*
X205740000Y-81280000D02*
X205740000Y-78740000D01*
X205740000Y-83820000D02*
X205740000Y-81280000D01*
X205740000Y-86360000D02*
X205740000Y-83820000D01*
X205740000Y-88900000D02*
X205740000Y-86360000D01*
X203200000Y-91440000D02*
X205740000Y-88900000D01*
X203200000Y-93980000D02*
X203200000Y-91440000D01*
X200660000Y-93980000D02*
X203200000Y-93980000D01*
X198120000Y-93980000D02*
X200660000Y-93980000D01*
X195580000Y-93980000D02*
X198120000Y-93980000D01*
X195580000Y-91440000D02*
X195580000Y-93980000D01*
M02*
