G04 #@! TF.FileFunction,Legend,Top*
%FSLAX46Y46*%
G04 Gerber Fmt 4.6, Leading zero omitted, Abs format (unit mm)*
G04 Created by KiCad (PCBNEW 4.0.7) date 02/27/18 09:42:24*
%MOMM*%
%LPD*%
G01*
G04 APERTURE LIST*
%ADD10C,0.100000*%
%ADD11C,0.200000*%
%ADD12C,0.120000*%
%ADD13C,0.010000*%
%ADD14C,0.150000*%
G04 APERTURE END LIST*
D10*
D11*
X205740000Y-97028000D02*
G75*
G03X205740000Y-97028000I-1270000J0D01*
G01*
D12*
X179010000Y-125670000D02*
X179010000Y-128330000D01*
X181610000Y-125670000D02*
X179010000Y-125670000D01*
X181610000Y-128330000D02*
X179010000Y-128330000D01*
X181610000Y-125670000D02*
X181610000Y-128330000D01*
X182880000Y-125670000D02*
X184210000Y-125670000D01*
X184210000Y-125670000D02*
X184210000Y-127000000D01*
X186750000Y-82490000D02*
X184090000Y-82490000D01*
X186750000Y-118110000D02*
X186750000Y-82490000D01*
X184090000Y-118110000D02*
X184090000Y-82490000D01*
X186750000Y-118110000D02*
X184090000Y-118110000D01*
X186750000Y-119380000D02*
X186750000Y-120710000D01*
X186750000Y-120710000D02*
X185420000Y-120710000D01*
X209610000Y-97730000D02*
X206950000Y-97730000D01*
X209610000Y-115570000D02*
X209610000Y-97730000D01*
X206950000Y-115570000D02*
X206950000Y-97730000D01*
X209610000Y-115570000D02*
X206950000Y-115570000D01*
X209610000Y-116840000D02*
X209610000Y-118170000D01*
X209610000Y-118170000D02*
X208280000Y-118170000D01*
X199330000Y-118170000D02*
X201990000Y-118170000D01*
X199330000Y-100330000D02*
X199330000Y-118170000D01*
X201990000Y-100330000D02*
X201990000Y-118170000D01*
X199330000Y-100330000D02*
X201990000Y-100330000D01*
X199330000Y-99060000D02*
X199330000Y-97730000D01*
X199330000Y-97730000D02*
X200660000Y-97730000D01*
X194370000Y-105350000D02*
X191710000Y-105350000D01*
X194370000Y-107950000D02*
X194370000Y-105350000D01*
X191710000Y-107950000D02*
X191710000Y-105350000D01*
X194370000Y-107950000D02*
X191710000Y-107950000D01*
X194370000Y-109220000D02*
X194370000Y-110550000D01*
X194370000Y-110550000D02*
X193040000Y-110550000D01*
X212030000Y-110550000D02*
X214690000Y-110550000D01*
X212030000Y-107950000D02*
X212030000Y-110550000D01*
X214690000Y-107950000D02*
X214690000Y-110550000D01*
X212030000Y-107950000D02*
X214690000Y-107950000D01*
X212030000Y-106680000D02*
X212030000Y-105350000D01*
X212030000Y-105350000D02*
X213360000Y-105350000D01*
X196790000Y-92770000D02*
X201990000Y-92770000D01*
X196790000Y-85090000D02*
X196790000Y-92770000D01*
X201990000Y-82490000D02*
X201990000Y-92770000D01*
X196790000Y-85090000D02*
X199390000Y-85090000D01*
X199390000Y-85090000D02*
X199390000Y-82490000D01*
X199390000Y-82490000D02*
X201990000Y-82490000D01*
X196790000Y-83820000D02*
X196790000Y-82490000D01*
X196790000Y-82490000D02*
X198120000Y-82490000D01*
X189170000Y-125670000D02*
X189170000Y-128330000D01*
X194310000Y-125670000D02*
X189170000Y-125670000D01*
X194310000Y-128330000D02*
X189170000Y-128330000D01*
X194310000Y-125670000D02*
X194310000Y-128330000D01*
X195580000Y-125670000D02*
X196910000Y-125670000D01*
X196910000Y-125670000D02*
X196910000Y-127000000D01*
X168850000Y-125670000D02*
X168850000Y-128330000D01*
X171450000Y-125670000D02*
X168850000Y-125670000D01*
X171450000Y-128330000D02*
X168850000Y-128330000D01*
X171450000Y-125670000D02*
X171450000Y-128330000D01*
X172720000Y-125670000D02*
X174050000Y-125670000D01*
X174050000Y-125670000D02*
X174050000Y-127000000D01*
X168850000Y-120710000D02*
X171510000Y-120710000D01*
X168850000Y-85090000D02*
X168850000Y-120710000D01*
X171510000Y-85090000D02*
X171510000Y-120710000D01*
X168850000Y-85090000D02*
X171510000Y-85090000D01*
X168850000Y-83820000D02*
X168850000Y-82490000D01*
X168850000Y-82490000D02*
X170180000Y-82490000D01*
D13*
G36*
X212971512Y-91535806D02*
X212974838Y-91527891D01*
X213025480Y-91467590D01*
X213095772Y-91450006D01*
X213170743Y-91476580D01*
X213221843Y-91535158D01*
X213228624Y-91605668D01*
X213190205Y-91673699D01*
X213183223Y-91680374D01*
X213117899Y-91712254D01*
X213051427Y-91704489D01*
X212996446Y-91666327D01*
X212965595Y-91607017D01*
X212971512Y-91535806D01*
X212971512Y-91535806D01*
G37*
X212971512Y-91535806D02*
X212974838Y-91527891D01*
X213025480Y-91467590D01*
X213095772Y-91450006D01*
X213170743Y-91476580D01*
X213221843Y-91535158D01*
X213228624Y-91605668D01*
X213190205Y-91673699D01*
X213183223Y-91680374D01*
X213117899Y-91712254D01*
X213051427Y-91704489D01*
X212996446Y-91666327D01*
X212965595Y-91607017D01*
X212971512Y-91535806D01*
G36*
X210390175Y-90414616D02*
X210393709Y-90303576D01*
X210399241Y-90222402D01*
X210406846Y-90181088D01*
X210407638Y-90179659D01*
X210435255Y-90166044D01*
X210506118Y-90139268D01*
X210614921Y-90101113D01*
X210756359Y-90053365D01*
X210925126Y-89997806D01*
X211115915Y-89936221D01*
X211323422Y-89870394D01*
X211385372Y-89850951D01*
X211594883Y-89784792D01*
X211787648Y-89722826D01*
X211958634Y-89666755D01*
X212102806Y-89618279D01*
X212215132Y-89579100D01*
X212290579Y-89550916D01*
X212324112Y-89535430D01*
X212325172Y-89533437D01*
X212297345Y-89522223D01*
X212226430Y-89497756D01*
X212117869Y-89461801D01*
X211977104Y-89416122D01*
X211809575Y-89362483D01*
X211620725Y-89302648D01*
X211415996Y-89238382D01*
X211391500Y-89230730D01*
X211183996Y-89165699D01*
X210990624Y-89104612D01*
X210817028Y-89049289D01*
X210668850Y-89001549D01*
X210551737Y-88963212D01*
X210471330Y-88936097D01*
X210433276Y-88922024D01*
X210432081Y-88921438D01*
X210416101Y-88909015D01*
X210404616Y-88886466D01*
X210397065Y-88846629D01*
X210392885Y-88782337D01*
X210391517Y-88686429D01*
X210392398Y-88551738D01*
X210393981Y-88435253D01*
X210400900Y-87972900D01*
X211796265Y-87966331D01*
X212110894Y-87965079D01*
X212378097Y-87964558D01*
X212601242Y-87964830D01*
X212783697Y-87965954D01*
X212928833Y-87967991D01*
X213040016Y-87971001D01*
X213120617Y-87975046D01*
X213174005Y-87980185D01*
X213203547Y-87986479D01*
X213211926Y-87991731D01*
X213221500Y-88032224D01*
X213227949Y-88109062D01*
X213231263Y-88207903D01*
X213231434Y-88314403D01*
X213228454Y-88414219D01*
X213222314Y-88493008D01*
X213213006Y-88536425D01*
X213212249Y-88537748D01*
X213194537Y-88546271D01*
X213150703Y-88553461D01*
X213077104Y-88559453D01*
X212970094Y-88564387D01*
X212826029Y-88568400D01*
X212641264Y-88571629D01*
X212412154Y-88574211D01*
X212202988Y-88575848D01*
X211213700Y-88582500D01*
X212197433Y-88907056D01*
X212462450Y-88995067D01*
X212681880Y-89069269D01*
X212858700Y-89130760D01*
X212995884Y-89180642D01*
X213096411Y-89220012D01*
X213163255Y-89249971D01*
X213199394Y-89271617D01*
X213207083Y-89280036D01*
X213221243Y-89333147D01*
X213229821Y-89419077D01*
X213232978Y-89523034D01*
X213230873Y-89630227D01*
X213223668Y-89725867D01*
X213211521Y-89795161D01*
X213201250Y-89818826D01*
X213170785Y-89835066D01*
X213097228Y-89864754D01*
X212985917Y-89906010D01*
X212842191Y-89956950D01*
X212671390Y-90015694D01*
X212478852Y-90080362D01*
X212269917Y-90149070D01*
X212196360Y-90172931D01*
X211223220Y-90487500D01*
X212194125Y-90494156D01*
X212479876Y-90496763D01*
X212716092Y-90500348D01*
X212904030Y-90504957D01*
X213044947Y-90510632D01*
X213140100Y-90517416D01*
X213190746Y-90525355D01*
X213199015Y-90529016D01*
X213219441Y-90571746D01*
X213230547Y-90659860D01*
X213233000Y-90757311D01*
X213231739Y-90858064D01*
X213226376Y-90918184D01*
X213214536Y-90947808D01*
X213193844Y-90957074D01*
X213186136Y-90957400D01*
X213123847Y-90980246D01*
X213076387Y-91038765D01*
X213055395Y-91117932D01*
X213055200Y-91126423D01*
X213033192Y-91207155D01*
X212977201Y-91273592D01*
X212902274Y-91310148D01*
X212875064Y-91313000D01*
X212799578Y-91296495D01*
X212736230Y-91255161D01*
X212701788Y-91201274D01*
X212699600Y-91184560D01*
X212695595Y-91161525D01*
X212677299Y-91147015D01*
X212635288Y-91139086D01*
X212560138Y-91135798D01*
X212460066Y-91135200D01*
X212348321Y-91134458D01*
X212277526Y-91130784D01*
X212237836Y-91122008D01*
X212219408Y-91105959D01*
X212212416Y-91080599D01*
X212187131Y-91028094D01*
X212137098Y-90976043D01*
X212134501Y-90974078D01*
X212053547Y-90939928D01*
X211973380Y-90954757D01*
X211899374Y-91016950D01*
X211874261Y-91052227D01*
X211823300Y-91133244D01*
X211486750Y-91134222D01*
X211348328Y-91133860D01*
X211253101Y-91131252D01*
X211193479Y-91125537D01*
X211161875Y-91115851D01*
X211150702Y-91101331D01*
X211150199Y-91095946D01*
X211128560Y-91039819D01*
X211075054Y-90984443D01*
X211006805Y-90944024D01*
X210952582Y-90932000D01*
X210870390Y-90956252D01*
X210800198Y-91025198D01*
X210747718Y-91133121D01*
X210745824Y-91138926D01*
X210699680Y-91217428D01*
X210630232Y-91264032D01*
X210550964Y-91276701D01*
X210475358Y-91253398D01*
X210416897Y-91192086D01*
X210415144Y-91188886D01*
X210406771Y-91148540D01*
X210399877Y-91068120D01*
X210394535Y-90957618D01*
X210390819Y-90827025D01*
X210388805Y-90686332D01*
X210388565Y-90545532D01*
X210390175Y-90414616D01*
X210390175Y-90414616D01*
G37*
X210390175Y-90414616D02*
X210393709Y-90303576D01*
X210399241Y-90222402D01*
X210406846Y-90181088D01*
X210407638Y-90179659D01*
X210435255Y-90166044D01*
X210506118Y-90139268D01*
X210614921Y-90101113D01*
X210756359Y-90053365D01*
X210925126Y-89997806D01*
X211115915Y-89936221D01*
X211323422Y-89870394D01*
X211385372Y-89850951D01*
X211594883Y-89784792D01*
X211787648Y-89722826D01*
X211958634Y-89666755D01*
X212102806Y-89618279D01*
X212215132Y-89579100D01*
X212290579Y-89550916D01*
X212324112Y-89535430D01*
X212325172Y-89533437D01*
X212297345Y-89522223D01*
X212226430Y-89497756D01*
X212117869Y-89461801D01*
X211977104Y-89416122D01*
X211809575Y-89362483D01*
X211620725Y-89302648D01*
X211415996Y-89238382D01*
X211391500Y-89230730D01*
X211183996Y-89165699D01*
X210990624Y-89104612D01*
X210817028Y-89049289D01*
X210668850Y-89001549D01*
X210551737Y-88963212D01*
X210471330Y-88936097D01*
X210433276Y-88922024D01*
X210432081Y-88921438D01*
X210416101Y-88909015D01*
X210404616Y-88886466D01*
X210397065Y-88846629D01*
X210392885Y-88782337D01*
X210391517Y-88686429D01*
X210392398Y-88551738D01*
X210393981Y-88435253D01*
X210400900Y-87972900D01*
X211796265Y-87966331D01*
X212110894Y-87965079D01*
X212378097Y-87964558D01*
X212601242Y-87964830D01*
X212783697Y-87965954D01*
X212928833Y-87967991D01*
X213040016Y-87971001D01*
X213120617Y-87975046D01*
X213174005Y-87980185D01*
X213203547Y-87986479D01*
X213211926Y-87991731D01*
X213221500Y-88032224D01*
X213227949Y-88109062D01*
X213231263Y-88207903D01*
X213231434Y-88314403D01*
X213228454Y-88414219D01*
X213222314Y-88493008D01*
X213213006Y-88536425D01*
X213212249Y-88537748D01*
X213194537Y-88546271D01*
X213150703Y-88553461D01*
X213077104Y-88559453D01*
X212970094Y-88564387D01*
X212826029Y-88568400D01*
X212641264Y-88571629D01*
X212412154Y-88574211D01*
X212202988Y-88575848D01*
X211213700Y-88582500D01*
X212197433Y-88907056D01*
X212462450Y-88995067D01*
X212681880Y-89069269D01*
X212858700Y-89130760D01*
X212995884Y-89180642D01*
X213096411Y-89220012D01*
X213163255Y-89249971D01*
X213199394Y-89271617D01*
X213207083Y-89280036D01*
X213221243Y-89333147D01*
X213229821Y-89419077D01*
X213232978Y-89523034D01*
X213230873Y-89630227D01*
X213223668Y-89725867D01*
X213211521Y-89795161D01*
X213201250Y-89818826D01*
X213170785Y-89835066D01*
X213097228Y-89864754D01*
X212985917Y-89906010D01*
X212842191Y-89956950D01*
X212671390Y-90015694D01*
X212478852Y-90080362D01*
X212269917Y-90149070D01*
X212196360Y-90172931D01*
X211223220Y-90487500D01*
X212194125Y-90494156D01*
X212479876Y-90496763D01*
X212716092Y-90500348D01*
X212904030Y-90504957D01*
X213044947Y-90510632D01*
X213140100Y-90517416D01*
X213190746Y-90525355D01*
X213199015Y-90529016D01*
X213219441Y-90571746D01*
X213230547Y-90659860D01*
X213233000Y-90757311D01*
X213231739Y-90858064D01*
X213226376Y-90918184D01*
X213214536Y-90947808D01*
X213193844Y-90957074D01*
X213186136Y-90957400D01*
X213123847Y-90980246D01*
X213076387Y-91038765D01*
X213055395Y-91117932D01*
X213055200Y-91126423D01*
X213033192Y-91207155D01*
X212977201Y-91273592D01*
X212902274Y-91310148D01*
X212875064Y-91313000D01*
X212799578Y-91296495D01*
X212736230Y-91255161D01*
X212701788Y-91201274D01*
X212699600Y-91184560D01*
X212695595Y-91161525D01*
X212677299Y-91147015D01*
X212635288Y-91139086D01*
X212560138Y-91135798D01*
X212460066Y-91135200D01*
X212348321Y-91134458D01*
X212277526Y-91130784D01*
X212237836Y-91122008D01*
X212219408Y-91105959D01*
X212212416Y-91080599D01*
X212187131Y-91028094D01*
X212137098Y-90976043D01*
X212134501Y-90974078D01*
X212053547Y-90939928D01*
X211973380Y-90954757D01*
X211899374Y-91016950D01*
X211874261Y-91052227D01*
X211823300Y-91133244D01*
X211486750Y-91134222D01*
X211348328Y-91133860D01*
X211253101Y-91131252D01*
X211193479Y-91125537D01*
X211161875Y-91115851D01*
X211150702Y-91101331D01*
X211150199Y-91095946D01*
X211128560Y-91039819D01*
X211075054Y-90984443D01*
X211006805Y-90944024D01*
X210952582Y-90932000D01*
X210870390Y-90956252D01*
X210800198Y-91025198D01*
X210747718Y-91133121D01*
X210745824Y-91138926D01*
X210699680Y-91217428D01*
X210630232Y-91264032D01*
X210550964Y-91276701D01*
X210475358Y-91253398D01*
X210416897Y-91192086D01*
X210415144Y-91188886D01*
X210406771Y-91148540D01*
X210399877Y-91068120D01*
X210394535Y-90957618D01*
X210390819Y-90827025D01*
X210388805Y-90686332D01*
X210388565Y-90545532D01*
X210390175Y-90414616D01*
G36*
X210388663Y-85866933D02*
X210393619Y-85759152D01*
X210401783Y-85671777D01*
X210413071Y-85616654D01*
X210419949Y-85604818D01*
X210451619Y-85589099D01*
X210524829Y-85557642D01*
X210634504Y-85512418D01*
X210775567Y-85455397D01*
X210942945Y-85388551D01*
X211131562Y-85313849D01*
X211336342Y-85233262D01*
X211552210Y-85148762D01*
X211774092Y-85062318D01*
X211996911Y-84975902D01*
X212215592Y-84891483D01*
X212425061Y-84811033D01*
X212620242Y-84736522D01*
X212796060Y-84669921D01*
X212947438Y-84613200D01*
X213069303Y-84568330D01*
X213156579Y-84537282D01*
X213204191Y-84522027D01*
X213211500Y-84520911D01*
X213219893Y-84550075D01*
X213226752Y-84619556D01*
X213231360Y-84718878D01*
X213233000Y-84834686D01*
X213231801Y-84968771D01*
X213227385Y-85061831D01*
X213218517Y-85123602D01*
X213203965Y-85163820D01*
X213188550Y-85185731D01*
X213147298Y-85214504D01*
X213069596Y-85253698D01*
X212967227Y-85297794D01*
X212870763Y-85334595D01*
X212597426Y-85432900D01*
X212604063Y-85965297D01*
X212610700Y-86497693D01*
X212886899Y-86601804D01*
X212999932Y-86647298D01*
X213097114Y-86691767D01*
X213167319Y-86729779D01*
X213198049Y-86753712D01*
X213214070Y-86799566D01*
X213225598Y-86878948D01*
X213232570Y-86979454D01*
X213234926Y-87088680D01*
X213232604Y-87194225D01*
X213225543Y-87283683D01*
X213213682Y-87344652D01*
X213201066Y-87364449D01*
X213173948Y-87357187D01*
X213104619Y-87333397D01*
X212998186Y-87295035D01*
X212859756Y-87244058D01*
X212694436Y-87182420D01*
X212507332Y-87112078D01*
X212303551Y-87034989D01*
X212088202Y-86953108D01*
X212045550Y-86936818D01*
X212045550Y-86283999D01*
X212052650Y-86260099D01*
X212058548Y-86194860D01*
X212062698Y-86097739D01*
X212064552Y-85978192D01*
X212064600Y-85954921D01*
X212064600Y-85626041D01*
X211629623Y-85777636D01*
X211487981Y-85827401D01*
X211361608Y-85872554D01*
X211258903Y-85910036D01*
X211188268Y-85936783D01*
X211159061Y-85949146D01*
X211168122Y-85964600D01*
X211224239Y-85993665D01*
X211325727Y-86035622D01*
X211470905Y-86089754D01*
X211574987Y-86126629D01*
X211717723Y-86176093D01*
X211843942Y-86219173D01*
X211945835Y-86253258D01*
X212015595Y-86275736D01*
X212045411Y-86283996D01*
X212045550Y-86283999D01*
X212045550Y-86936818D01*
X211866389Y-86868390D01*
X211643221Y-86782793D01*
X211423804Y-86698271D01*
X211213245Y-86616782D01*
X211016652Y-86540281D01*
X210839130Y-86470724D01*
X210685787Y-86410066D01*
X210561730Y-86360265D01*
X210472066Y-86323275D01*
X210421901Y-86301054D01*
X210414989Y-86297359D01*
X210402628Y-86265222D01*
X210393899Y-86194265D01*
X210388719Y-86096335D01*
X210387002Y-85983276D01*
X210388663Y-85866933D01*
X210388663Y-85866933D01*
G37*
X210388663Y-85866933D02*
X210393619Y-85759152D01*
X210401783Y-85671777D01*
X210413071Y-85616654D01*
X210419949Y-85604818D01*
X210451619Y-85589099D01*
X210524829Y-85557642D01*
X210634504Y-85512418D01*
X210775567Y-85455397D01*
X210942945Y-85388551D01*
X211131562Y-85313849D01*
X211336342Y-85233262D01*
X211552210Y-85148762D01*
X211774092Y-85062318D01*
X211996911Y-84975902D01*
X212215592Y-84891483D01*
X212425061Y-84811033D01*
X212620242Y-84736522D01*
X212796060Y-84669921D01*
X212947438Y-84613200D01*
X213069303Y-84568330D01*
X213156579Y-84537282D01*
X213204191Y-84522027D01*
X213211500Y-84520911D01*
X213219893Y-84550075D01*
X213226752Y-84619556D01*
X213231360Y-84718878D01*
X213233000Y-84834686D01*
X213231801Y-84968771D01*
X213227385Y-85061831D01*
X213218517Y-85123602D01*
X213203965Y-85163820D01*
X213188550Y-85185731D01*
X213147298Y-85214504D01*
X213069596Y-85253698D01*
X212967227Y-85297794D01*
X212870763Y-85334595D01*
X212597426Y-85432900D01*
X212604063Y-85965297D01*
X212610700Y-86497693D01*
X212886899Y-86601804D01*
X212999932Y-86647298D01*
X213097114Y-86691767D01*
X213167319Y-86729779D01*
X213198049Y-86753712D01*
X213214070Y-86799566D01*
X213225598Y-86878948D01*
X213232570Y-86979454D01*
X213234926Y-87088680D01*
X213232604Y-87194225D01*
X213225543Y-87283683D01*
X213213682Y-87344652D01*
X213201066Y-87364449D01*
X213173948Y-87357187D01*
X213104619Y-87333397D01*
X212998186Y-87295035D01*
X212859756Y-87244058D01*
X212694436Y-87182420D01*
X212507332Y-87112078D01*
X212303551Y-87034989D01*
X212088202Y-86953108D01*
X212045550Y-86936818D01*
X212045550Y-86283999D01*
X212052650Y-86260099D01*
X212058548Y-86194860D01*
X212062698Y-86097739D01*
X212064552Y-85978192D01*
X212064600Y-85954921D01*
X212064600Y-85626041D01*
X211629623Y-85777636D01*
X211487981Y-85827401D01*
X211361608Y-85872554D01*
X211258903Y-85910036D01*
X211188268Y-85936783D01*
X211159061Y-85949146D01*
X211168122Y-85964600D01*
X211224239Y-85993665D01*
X211325727Y-86035622D01*
X211470905Y-86089754D01*
X211574987Y-86126629D01*
X211717723Y-86176093D01*
X211843942Y-86219173D01*
X211945835Y-86253258D01*
X212015595Y-86275736D01*
X212045411Y-86283996D01*
X212045550Y-86283999D01*
X212045550Y-86936818D01*
X211866389Y-86868390D01*
X211643221Y-86782793D01*
X211423804Y-86698271D01*
X211213245Y-86616782D01*
X211016652Y-86540281D01*
X210839130Y-86470724D01*
X210685787Y-86410066D01*
X210561730Y-86360265D01*
X210472066Y-86323275D01*
X210421901Y-86301054D01*
X210414989Y-86297359D01*
X210402628Y-86265222D01*
X210393899Y-86194265D01*
X210388719Y-86096335D01*
X210387002Y-85983276D01*
X210388663Y-85866933D01*
G36*
X210388701Y-83496379D02*
X210390065Y-83399235D01*
X210392085Y-83332733D01*
X210394550Y-83306954D01*
X210420658Y-83304810D01*
X210489993Y-83301697D01*
X210594996Y-83297884D01*
X210728107Y-83293639D01*
X210881769Y-83289230D01*
X210931143Y-83287904D01*
X211461386Y-83273900D01*
X210940427Y-82836317D01*
X210801250Y-82718415D01*
X210674923Y-82609491D01*
X210566729Y-82514253D01*
X210481947Y-82437409D01*
X210425857Y-82383664D01*
X210403834Y-82357989D01*
X210396963Y-82316030D01*
X210392153Y-82238653D01*
X210389322Y-82136631D01*
X210388390Y-82020736D01*
X210389278Y-81901740D01*
X210391903Y-81790416D01*
X210396187Y-81697537D01*
X210402048Y-81633874D01*
X210409406Y-81610201D01*
X210409420Y-81610200D01*
X210432951Y-81626321D01*
X210490033Y-81672089D01*
X210576062Y-81743616D01*
X210686432Y-81837013D01*
X210816538Y-81948392D01*
X210961775Y-82073863D01*
X211071130Y-82169000D01*
X211224131Y-82302024D01*
X211365084Y-82423685D01*
X211489414Y-82530105D01*
X211592547Y-82617402D01*
X211669906Y-82681696D01*
X211716915Y-82719108D01*
X211729360Y-82727223D01*
X211752458Y-82711611D01*
X211810394Y-82667431D01*
X211898669Y-82598255D01*
X212012782Y-82507657D01*
X212148232Y-82399209D01*
X212300521Y-82276484D01*
X212465146Y-82143056D01*
X212466003Y-82142360D01*
X212630751Y-82009371D01*
X212783511Y-81887808D01*
X212919752Y-81781142D01*
X213034941Y-81692846D01*
X213124549Y-81626393D01*
X213184046Y-81585256D01*
X213208899Y-81572906D01*
X213208953Y-81572937D01*
X213217634Y-81602452D01*
X213224902Y-81673400D01*
X213230157Y-81776418D01*
X213232802Y-81902146D01*
X213233000Y-81948948D01*
X213231754Y-82102979D01*
X213227523Y-82214260D01*
X213219563Y-82290790D01*
X213207133Y-82340571D01*
X213194350Y-82365277D01*
X213164518Y-82395019D01*
X213099962Y-82450949D01*
X213006348Y-82528443D01*
X212889341Y-82622877D01*
X212754608Y-82729628D01*
X212607815Y-82844074D01*
X212603800Y-82847178D01*
X212051900Y-83273900D01*
X212608708Y-83280758D01*
X212816225Y-83284618D01*
X212981527Y-83290497D01*
X213102312Y-83298257D01*
X213176278Y-83307764D01*
X213199258Y-83315618D01*
X213215959Y-83347741D01*
X213226674Y-83414959D01*
X213232055Y-83523121D01*
X213233000Y-83619017D01*
X213232121Y-83742047D01*
X213228433Y-83823989D01*
X213220357Y-83874539D01*
X213206313Y-83903393D01*
X213184722Y-83920247D01*
X213183869Y-83920707D01*
X213150317Y-83925406D01*
X213071767Y-83929728D01*
X212954021Y-83933649D01*
X212802881Y-83937147D01*
X212624149Y-83940198D01*
X212423625Y-83942779D01*
X212207111Y-83944869D01*
X211980409Y-83946443D01*
X211749320Y-83947478D01*
X211519646Y-83947953D01*
X211297188Y-83947844D01*
X211087748Y-83947128D01*
X210897127Y-83945783D01*
X210731126Y-83943785D01*
X210595548Y-83941111D01*
X210496193Y-83937739D01*
X210438864Y-83933645D01*
X210428377Y-83931583D01*
X210410905Y-83917179D01*
X210399213Y-83884281D01*
X210392241Y-83824516D01*
X210388929Y-83729510D01*
X210388200Y-83614083D01*
X210388701Y-83496379D01*
X210388701Y-83496379D01*
G37*
X210388701Y-83496379D02*
X210390065Y-83399235D01*
X210392085Y-83332733D01*
X210394550Y-83306954D01*
X210420658Y-83304810D01*
X210489993Y-83301697D01*
X210594996Y-83297884D01*
X210728107Y-83293639D01*
X210881769Y-83289230D01*
X210931143Y-83287904D01*
X211461386Y-83273900D01*
X210940427Y-82836317D01*
X210801250Y-82718415D01*
X210674923Y-82609491D01*
X210566729Y-82514253D01*
X210481947Y-82437409D01*
X210425857Y-82383664D01*
X210403834Y-82357989D01*
X210396963Y-82316030D01*
X210392153Y-82238653D01*
X210389322Y-82136631D01*
X210388390Y-82020736D01*
X210389278Y-81901740D01*
X210391903Y-81790416D01*
X210396187Y-81697537D01*
X210402048Y-81633874D01*
X210409406Y-81610201D01*
X210409420Y-81610200D01*
X210432951Y-81626321D01*
X210490033Y-81672089D01*
X210576062Y-81743616D01*
X210686432Y-81837013D01*
X210816538Y-81948392D01*
X210961775Y-82073863D01*
X211071130Y-82169000D01*
X211224131Y-82302024D01*
X211365084Y-82423685D01*
X211489414Y-82530105D01*
X211592547Y-82617402D01*
X211669906Y-82681696D01*
X211716915Y-82719108D01*
X211729360Y-82727223D01*
X211752458Y-82711611D01*
X211810394Y-82667431D01*
X211898669Y-82598255D01*
X212012782Y-82507657D01*
X212148232Y-82399209D01*
X212300521Y-82276484D01*
X212465146Y-82143056D01*
X212466003Y-82142360D01*
X212630751Y-82009371D01*
X212783511Y-81887808D01*
X212919752Y-81781142D01*
X213034941Y-81692846D01*
X213124549Y-81626393D01*
X213184046Y-81585256D01*
X213208899Y-81572906D01*
X213208953Y-81572937D01*
X213217634Y-81602452D01*
X213224902Y-81673400D01*
X213230157Y-81776418D01*
X213232802Y-81902146D01*
X213233000Y-81948948D01*
X213231754Y-82102979D01*
X213227523Y-82214260D01*
X213219563Y-82290790D01*
X213207133Y-82340571D01*
X213194350Y-82365277D01*
X213164518Y-82395019D01*
X213099962Y-82450949D01*
X213006348Y-82528443D01*
X212889341Y-82622877D01*
X212754608Y-82729628D01*
X212607815Y-82844074D01*
X212603800Y-82847178D01*
X212051900Y-83273900D01*
X212608708Y-83280758D01*
X212816225Y-83284618D01*
X212981527Y-83290497D01*
X213102312Y-83298257D01*
X213176278Y-83307764D01*
X213199258Y-83315618D01*
X213215959Y-83347741D01*
X213226674Y-83414959D01*
X213232055Y-83523121D01*
X213233000Y-83619017D01*
X213232121Y-83742047D01*
X213228433Y-83823989D01*
X213220357Y-83874539D01*
X213206313Y-83903393D01*
X213184722Y-83920247D01*
X213183869Y-83920707D01*
X213150317Y-83925406D01*
X213071767Y-83929728D01*
X212954021Y-83933649D01*
X212802881Y-83937147D01*
X212624149Y-83940198D01*
X212423625Y-83942779D01*
X212207111Y-83944869D01*
X211980409Y-83946443D01*
X211749320Y-83947478D01*
X211519646Y-83947953D01*
X211297188Y-83947844D01*
X211087748Y-83947128D01*
X210897127Y-83945783D01*
X210731126Y-83943785D01*
X210595548Y-83941111D01*
X210496193Y-83937739D01*
X210438864Y-83933645D01*
X210428377Y-83931583D01*
X210410905Y-83917179D01*
X210399213Y-83884281D01*
X210392241Y-83824516D01*
X210388929Y-83729510D01*
X210388200Y-83614083D01*
X210388701Y-83496379D01*
G36*
X210393748Y-79567350D02*
X210396564Y-79454144D01*
X210401076Y-79374505D01*
X210407411Y-79324128D01*
X210415697Y-79298707D01*
X210419596Y-79294557D01*
X210462229Y-79283850D01*
X210539046Y-79277225D01*
X210633632Y-79274701D01*
X210729574Y-79276298D01*
X210810460Y-79282038D01*
X210859874Y-79291941D01*
X210863907Y-79294003D01*
X210875671Y-79317861D01*
X210885018Y-79375529D01*
X210892235Y-79471053D01*
X210897607Y-79608481D01*
X210901420Y-79791858D01*
X210902007Y-79833364D01*
X210908900Y-80352900D01*
X211493100Y-80352900D01*
X211518500Y-79387700D01*
X212001100Y-79387700D01*
X212014896Y-80365600D01*
X212698589Y-80365600D01*
X212705444Y-79825850D01*
X212712300Y-79286100D01*
X212937061Y-79278725D01*
X213066725Y-79278283D01*
X213155818Y-79286400D01*
X213197411Y-79300885D01*
X213208100Y-79334584D01*
X213217107Y-79411530D01*
X213224428Y-79524204D01*
X213230058Y-79665084D01*
X213233993Y-79826649D01*
X213236229Y-80001378D01*
X213236761Y-80181750D01*
X213235585Y-80360244D01*
X213232697Y-80529339D01*
X213228092Y-80681515D01*
X213221765Y-80809250D01*
X213213714Y-80905023D01*
X213203932Y-80961314D01*
X213198381Y-80972311D01*
X213173770Y-80979065D01*
X213116093Y-80984631D01*
X213022975Y-80989046D01*
X212892045Y-80992348D01*
X212720929Y-80994573D01*
X212507253Y-80995758D01*
X212248644Y-80995941D01*
X211942730Y-80995159D01*
X211782331Y-80994471D01*
X210400900Y-80987900D01*
X210394196Y-80151418D01*
X210392692Y-79911682D01*
X210392499Y-79718428D01*
X210393748Y-79567350D01*
X210393748Y-79567350D01*
G37*
X210393748Y-79567350D02*
X210396564Y-79454144D01*
X210401076Y-79374505D01*
X210407411Y-79324128D01*
X210415697Y-79298707D01*
X210419596Y-79294557D01*
X210462229Y-79283850D01*
X210539046Y-79277225D01*
X210633632Y-79274701D01*
X210729574Y-79276298D01*
X210810460Y-79282038D01*
X210859874Y-79291941D01*
X210863907Y-79294003D01*
X210875671Y-79317861D01*
X210885018Y-79375529D01*
X210892235Y-79471053D01*
X210897607Y-79608481D01*
X210901420Y-79791858D01*
X210902007Y-79833364D01*
X210908900Y-80352900D01*
X211493100Y-80352900D01*
X211518500Y-79387700D01*
X212001100Y-79387700D01*
X212014896Y-80365600D01*
X212698589Y-80365600D01*
X212705444Y-79825850D01*
X212712300Y-79286100D01*
X212937061Y-79278725D01*
X213066725Y-79278283D01*
X213155818Y-79286400D01*
X213197411Y-79300885D01*
X213208100Y-79334584D01*
X213217107Y-79411530D01*
X213224428Y-79524204D01*
X213230058Y-79665084D01*
X213233993Y-79826649D01*
X213236229Y-80001378D01*
X213236761Y-80181750D01*
X213235585Y-80360244D01*
X213232697Y-80529339D01*
X213228092Y-80681515D01*
X213221765Y-80809250D01*
X213213714Y-80905023D01*
X213203932Y-80961314D01*
X213198381Y-80972311D01*
X213173770Y-80979065D01*
X213116093Y-80984631D01*
X213022975Y-80989046D01*
X212892045Y-80992348D01*
X212720929Y-80994573D01*
X212507253Y-80995758D01*
X212248644Y-80995941D01*
X211942730Y-80995159D01*
X211782331Y-80994471D01*
X210400900Y-80987900D01*
X210394196Y-80151418D01*
X210392692Y-79911682D01*
X210392499Y-79718428D01*
X210393748Y-79567350D01*
G36*
X212126170Y-91335129D02*
X212161850Y-91278837D01*
X212238013Y-91239227D01*
X212320951Y-91239619D01*
X212396717Y-91273887D01*
X212451359Y-91335904D01*
X212471000Y-91414600D01*
X212453776Y-91489181D01*
X212420200Y-91541600D01*
X212344998Y-91583933D01*
X212254977Y-91587254D01*
X212171851Y-91552860D01*
X212129284Y-91495538D01*
X212113800Y-91415910D01*
X212126170Y-91335129D01*
X212126170Y-91335129D01*
G37*
X212126170Y-91335129D02*
X212161850Y-91278837D01*
X212238013Y-91239227D01*
X212320951Y-91239619D01*
X212396717Y-91273887D01*
X212451359Y-91335904D01*
X212471000Y-91414600D01*
X212453776Y-91489181D01*
X212420200Y-91541600D01*
X212344998Y-91583933D01*
X212254977Y-91587254D01*
X212171851Y-91552860D01*
X212129284Y-91495538D01*
X212113800Y-91415910D01*
X212126170Y-91335129D01*
G36*
X211310640Y-91462943D02*
X211342046Y-91400974D01*
X211388959Y-91348560D01*
X211450915Y-91294263D01*
X211509286Y-91268953D01*
X211589578Y-91262248D01*
X211601151Y-91262200D01*
X211692988Y-91269350D01*
X211757895Y-91295641D01*
X211794449Y-91324727D01*
X211875541Y-91425448D01*
X211906723Y-91532908D01*
X211888780Y-91650630D01*
X211875138Y-91685733D01*
X211808379Y-91781204D01*
X211713199Y-91841721D01*
X211601773Y-91862868D01*
X211486276Y-91840228D01*
X211469521Y-91832862D01*
X211374384Y-91762605D01*
X211318864Y-91660751D01*
X211302599Y-91540322D01*
X211310640Y-91462943D01*
X211310640Y-91462943D01*
G37*
X211310640Y-91462943D02*
X211342046Y-91400974D01*
X211388959Y-91348560D01*
X211450915Y-91294263D01*
X211509286Y-91268953D01*
X211589578Y-91262248D01*
X211601151Y-91262200D01*
X211692988Y-91269350D01*
X211757895Y-91295641D01*
X211794449Y-91324727D01*
X211875541Y-91425448D01*
X211906723Y-91532908D01*
X211888780Y-91650630D01*
X211875138Y-91685733D01*
X211808379Y-91781204D01*
X211713199Y-91841721D01*
X211601773Y-91862868D01*
X211486276Y-91840228D01*
X211469521Y-91832862D01*
X211374384Y-91762605D01*
X211318864Y-91660751D01*
X211302599Y-91540322D01*
X211310640Y-91462943D01*
G36*
X210790423Y-91327578D02*
X210845112Y-91269128D01*
X210919794Y-91238813D01*
X211001000Y-91240985D01*
X211075256Y-91279998D01*
X211097556Y-91303726D01*
X211137946Y-91365548D01*
X211145265Y-91417935D01*
X211132180Y-91465400D01*
X211083075Y-91541200D01*
X211013016Y-91582194D01*
X210934382Y-91590278D01*
X210859553Y-91567347D01*
X210800906Y-91515298D01*
X210770820Y-91436025D01*
X210769200Y-91409811D01*
X210790423Y-91327578D01*
X210790423Y-91327578D01*
G37*
X210790423Y-91327578D02*
X210845112Y-91269128D01*
X210919794Y-91238813D01*
X211001000Y-91240985D01*
X211075256Y-91279998D01*
X211097556Y-91303726D01*
X211137946Y-91365548D01*
X211145265Y-91417935D01*
X211132180Y-91465400D01*
X211083075Y-91541200D01*
X211013016Y-91582194D01*
X210934382Y-91590278D01*
X210859553Y-91567347D01*
X210800906Y-91515298D01*
X210770820Y-91436025D01*
X210769200Y-91409811D01*
X210790423Y-91327578D01*
D14*
X178689238Y-130373429D02*
X179451143Y-130373429D01*
X179070191Y-130754381D02*
X179070191Y-129992476D01*
X180355905Y-129754381D02*
X180165428Y-129754381D01*
X180070190Y-129802000D01*
X180022571Y-129849619D01*
X179927333Y-129992476D01*
X179879714Y-130182952D01*
X179879714Y-130563905D01*
X179927333Y-130659143D01*
X179974952Y-130706762D01*
X180070190Y-130754381D01*
X180260667Y-130754381D01*
X180355905Y-130706762D01*
X180403524Y-130659143D01*
X180451143Y-130563905D01*
X180451143Y-130325810D01*
X180403524Y-130230571D01*
X180355905Y-130182952D01*
X180260667Y-130135333D01*
X180070190Y-130135333D01*
X179974952Y-130182952D01*
X179927333Y-130230571D01*
X179879714Y-130325810D01*
X180736857Y-129754381D02*
X181070190Y-130754381D01*
X181403524Y-129754381D01*
X181736857Y-130373429D02*
X182498762Y-130373429D01*
X199548953Y-120340381D02*
X199072762Y-120340381D01*
X199072762Y-119340381D01*
X199834667Y-119435619D02*
X199882286Y-119388000D01*
X199977524Y-119340381D01*
X200215620Y-119340381D01*
X200310858Y-119388000D01*
X200358477Y-119435619D01*
X200406096Y-119530857D01*
X200406096Y-119626095D01*
X200358477Y-119768952D01*
X199787048Y-120340381D01*
X200406096Y-120340381D01*
X200882286Y-120340381D02*
X201072762Y-120340381D01*
X201168001Y-120292762D01*
X201215620Y-120245143D01*
X201310858Y-120102286D01*
X201358477Y-119911810D01*
X201358477Y-119530857D01*
X201310858Y-119435619D01*
X201263239Y-119388000D01*
X201168001Y-119340381D01*
X200977524Y-119340381D01*
X200882286Y-119388000D01*
X200834667Y-119435619D01*
X200787048Y-119530857D01*
X200787048Y-119768952D01*
X200834667Y-119864190D01*
X200882286Y-119911810D01*
X200977524Y-119959429D01*
X201168001Y-119959429D01*
X201263239Y-119911810D01*
X201310858Y-119864190D01*
X201358477Y-119768952D01*
X201691810Y-119340381D02*
X202310858Y-119340381D01*
X201977524Y-119721333D01*
X202120382Y-119721333D01*
X202215620Y-119768952D01*
X202263239Y-119816571D01*
X202310858Y-119911810D01*
X202310858Y-120149905D01*
X202263239Y-120245143D01*
X202215620Y-120292762D01*
X202120382Y-120340381D01*
X201834667Y-120340381D01*
X201739429Y-120292762D01*
X201691810Y-120245143D01*
X203072763Y-119816571D02*
X203215620Y-119864190D01*
X203263239Y-119911810D01*
X203310858Y-120007048D01*
X203310858Y-120149905D01*
X203263239Y-120245143D01*
X203215620Y-120292762D01*
X203120382Y-120340381D01*
X202739429Y-120340381D01*
X202739429Y-119340381D01*
X203072763Y-119340381D01*
X203168001Y-119388000D01*
X203215620Y-119435619D01*
X203263239Y-119530857D01*
X203263239Y-119626095D01*
X203215620Y-119721333D01*
X203168001Y-119768952D01*
X203072763Y-119816571D01*
X202739429Y-119816571D01*
X190635238Y-112002381D02*
X190635238Y-111335714D01*
X190635238Y-111430952D02*
X190682857Y-111383333D01*
X190778095Y-111335714D01*
X190920953Y-111335714D01*
X191016191Y-111383333D01*
X191063810Y-111478571D01*
X191063810Y-112002381D01*
X191063810Y-111478571D02*
X191111429Y-111383333D01*
X191206667Y-111335714D01*
X191349524Y-111335714D01*
X191444762Y-111383333D01*
X191492381Y-111478571D01*
X191492381Y-112002381D01*
X192111428Y-112002381D02*
X192016190Y-111954762D01*
X191968571Y-111907143D01*
X191920952Y-111811905D01*
X191920952Y-111526190D01*
X191968571Y-111430952D01*
X192016190Y-111383333D01*
X192111428Y-111335714D01*
X192254286Y-111335714D01*
X192349524Y-111383333D01*
X192397143Y-111430952D01*
X192444762Y-111526190D01*
X192444762Y-111811905D01*
X192397143Y-111907143D01*
X192349524Y-111954762D01*
X192254286Y-112002381D01*
X192111428Y-112002381D01*
X192730476Y-111335714D02*
X193111428Y-111335714D01*
X192873333Y-111002381D02*
X192873333Y-111859524D01*
X192920952Y-111954762D01*
X193016190Y-112002381D01*
X193111428Y-112002381D01*
X193587619Y-112002381D02*
X193492381Y-111954762D01*
X193444762Y-111907143D01*
X193397143Y-111811905D01*
X193397143Y-111526190D01*
X193444762Y-111430952D01*
X193492381Y-111383333D01*
X193587619Y-111335714D01*
X193730477Y-111335714D01*
X193825715Y-111383333D01*
X193873334Y-111430952D01*
X193920953Y-111526190D01*
X193920953Y-111811905D01*
X193873334Y-111907143D01*
X193825715Y-111954762D01*
X193730477Y-112002381D01*
X193587619Y-112002381D01*
X194349524Y-112002381D02*
X194349524Y-111335714D01*
X194349524Y-111526190D02*
X194397143Y-111430952D01*
X194444762Y-111383333D01*
X194540000Y-111335714D01*
X194635239Y-111335714D01*
X195492382Y-112002381D02*
X194920953Y-112002381D01*
X195206667Y-112002381D02*
X195206667Y-111002381D01*
X195111429Y-111145238D01*
X195016191Y-111240476D01*
X194920953Y-111288095D01*
X211209238Y-112466381D02*
X211209238Y-111799714D01*
X211209238Y-111894952D02*
X211256857Y-111847333D01*
X211352095Y-111799714D01*
X211494953Y-111799714D01*
X211590191Y-111847333D01*
X211637810Y-111942571D01*
X211637810Y-112466381D01*
X211637810Y-111942571D02*
X211685429Y-111847333D01*
X211780667Y-111799714D01*
X211923524Y-111799714D01*
X212018762Y-111847333D01*
X212066381Y-111942571D01*
X212066381Y-112466381D01*
X212685428Y-112466381D02*
X212590190Y-112418762D01*
X212542571Y-112371143D01*
X212494952Y-112275905D01*
X212494952Y-111990190D01*
X212542571Y-111894952D01*
X212590190Y-111847333D01*
X212685428Y-111799714D01*
X212828286Y-111799714D01*
X212923524Y-111847333D01*
X212971143Y-111894952D01*
X213018762Y-111990190D01*
X213018762Y-112275905D01*
X212971143Y-112371143D01*
X212923524Y-112418762D01*
X212828286Y-112466381D01*
X212685428Y-112466381D01*
X213304476Y-111799714D02*
X213685428Y-111799714D01*
X213447333Y-111466381D02*
X213447333Y-112323524D01*
X213494952Y-112418762D01*
X213590190Y-112466381D01*
X213685428Y-112466381D01*
X214161619Y-112466381D02*
X214066381Y-112418762D01*
X214018762Y-112371143D01*
X213971143Y-112275905D01*
X213971143Y-111990190D01*
X214018762Y-111894952D01*
X214066381Y-111847333D01*
X214161619Y-111799714D01*
X214304477Y-111799714D01*
X214399715Y-111847333D01*
X214447334Y-111894952D01*
X214494953Y-111990190D01*
X214494953Y-112275905D01*
X214447334Y-112371143D01*
X214399715Y-112418762D01*
X214304477Y-112466381D01*
X214161619Y-112466381D01*
X214923524Y-112466381D02*
X214923524Y-111799714D01*
X214923524Y-111990190D02*
X214971143Y-111894952D01*
X215018762Y-111847333D01*
X215114000Y-111799714D01*
X215209239Y-111799714D01*
X215494953Y-111561619D02*
X215542572Y-111514000D01*
X215637810Y-111466381D01*
X215875906Y-111466381D01*
X215971144Y-111514000D01*
X216018763Y-111561619D01*
X216066382Y-111656857D01*
X216066382Y-111752095D01*
X216018763Y-111894952D01*
X215447334Y-112466381D01*
X216066382Y-112466381D01*
X197294762Y-81275714D02*
X197294762Y-81942381D01*
X197294762Y-81370952D02*
X197342381Y-81323333D01*
X197437619Y-81275714D01*
X197580477Y-81275714D01*
X197675715Y-81323333D01*
X197723334Y-81418571D01*
X197723334Y-81942381D01*
X198770953Y-81942381D02*
X198437619Y-81466190D01*
X198199524Y-81942381D02*
X198199524Y-80942381D01*
X198580477Y-80942381D01*
X198675715Y-80990000D01*
X198723334Y-81037619D01*
X198770953Y-81132857D01*
X198770953Y-81275714D01*
X198723334Y-81370952D01*
X198675715Y-81418571D01*
X198580477Y-81466190D01*
X198199524Y-81466190D01*
X199532858Y-81418571D02*
X199199524Y-81418571D01*
X199199524Y-81942381D02*
X199199524Y-80942381D01*
X199675715Y-80942381D01*
X200009048Y-81037619D02*
X200056667Y-80990000D01*
X200151905Y-80942381D01*
X200390001Y-80942381D01*
X200485239Y-80990000D01*
X200532858Y-81037619D01*
X200580477Y-81132857D01*
X200580477Y-81228095D01*
X200532858Y-81370952D01*
X199961429Y-81942381D01*
X200580477Y-81942381D01*
X201437620Y-81275714D02*
X201437620Y-81942381D01*
X201199524Y-80894762D02*
X200961429Y-81609048D01*
X201580477Y-81609048D01*
X189635238Y-130056000D02*
X189540000Y-130008381D01*
X189397143Y-130008381D01*
X189254285Y-130056000D01*
X189159047Y-130151238D01*
X189111428Y-130246476D01*
X189063809Y-130436952D01*
X189063809Y-130579810D01*
X189111428Y-130770286D01*
X189159047Y-130865524D01*
X189254285Y-130960762D01*
X189397143Y-131008381D01*
X189492381Y-131008381D01*
X189635238Y-130960762D01*
X189682857Y-130913143D01*
X189682857Y-130579810D01*
X189492381Y-130579810D01*
X190111428Y-131008381D02*
X190111428Y-130008381D01*
X190682857Y-131008381D01*
X190682857Y-130008381D01*
X191159047Y-131008381D02*
X191159047Y-130008381D01*
X191397142Y-130008381D01*
X191540000Y-130056000D01*
X191635238Y-130151238D01*
X191682857Y-130246476D01*
X191730476Y-130436952D01*
X191730476Y-130579810D01*
X191682857Y-130770286D01*
X191635238Y-130865524D01*
X191540000Y-130960762D01*
X191397142Y-131008381D01*
X191159047Y-131008381D01*
X193397143Y-130008381D02*
X192920952Y-130008381D01*
X192873333Y-130484571D01*
X192920952Y-130436952D01*
X193016190Y-130389333D01*
X193254286Y-130389333D01*
X193349524Y-130436952D01*
X193397143Y-130484571D01*
X193444762Y-130579810D01*
X193444762Y-130817905D01*
X193397143Y-130913143D01*
X193349524Y-130960762D01*
X193254286Y-131008381D01*
X193016190Y-131008381D01*
X192920952Y-130960762D01*
X192873333Y-130913143D01*
X193730476Y-130008381D02*
X194063809Y-131008381D01*
X194397143Y-130008381D01*
X195492381Y-131008381D02*
X195492381Y-130008381D01*
X195730476Y-130008381D01*
X195873334Y-130056000D01*
X195968572Y-130151238D01*
X196016191Y-130246476D01*
X196063810Y-130436952D01*
X196063810Y-130579810D01*
X196016191Y-130770286D01*
X195968572Y-130865524D01*
X195873334Y-130960762D01*
X195730476Y-131008381D01*
X195492381Y-131008381D01*
X196444762Y-130103619D02*
X196492381Y-130056000D01*
X196587619Y-130008381D01*
X196825715Y-130008381D01*
X196920953Y-130056000D01*
X196968572Y-130103619D01*
X197016191Y-130198857D01*
X197016191Y-130294095D01*
X196968572Y-130436952D01*
X196397143Y-131008381D01*
X197016191Y-131008381D01*
X168981714Y-130960762D02*
X169124571Y-131008381D01*
X169362667Y-131008381D01*
X169457905Y-130960762D01*
X169505524Y-130913143D01*
X169553143Y-130817905D01*
X169553143Y-130722667D01*
X169505524Y-130627429D01*
X169457905Y-130579810D01*
X169362667Y-130532190D01*
X169172190Y-130484571D01*
X169076952Y-130436952D01*
X169029333Y-130389333D01*
X168981714Y-130294095D01*
X168981714Y-130198857D01*
X169029333Y-130103619D01*
X169076952Y-130056000D01*
X169172190Y-130008381D01*
X169410286Y-130008381D01*
X169553143Y-130056000D01*
X169886476Y-130341714D02*
X170076952Y-131008381D01*
X170267429Y-130532190D01*
X170457905Y-131008381D01*
X170648381Y-130341714D01*
X171029333Y-131008381D02*
X171029333Y-130341714D01*
X171029333Y-130008381D02*
X170981714Y-130056000D01*
X171029333Y-130103619D01*
X171076952Y-130056000D01*
X171029333Y-130008381D01*
X171029333Y-130103619D01*
X171362666Y-130341714D02*
X171743618Y-130341714D01*
X171505523Y-130008381D02*
X171505523Y-130865524D01*
X171553142Y-130960762D01*
X171648380Y-131008381D01*
X171743618Y-131008381D01*
X172505524Y-130960762D02*
X172410286Y-131008381D01*
X172219809Y-131008381D01*
X172124571Y-130960762D01*
X172076952Y-130913143D01*
X172029333Y-130817905D01*
X172029333Y-130532190D01*
X172076952Y-130436952D01*
X172124571Y-130389333D01*
X172219809Y-130341714D01*
X172410286Y-130341714D01*
X172505524Y-130389333D01*
X172934095Y-131008381D02*
X172934095Y-130008381D01*
X173362667Y-131008381D02*
X173362667Y-130484571D01*
X173315048Y-130389333D01*
X173219810Y-130341714D01*
X173076952Y-130341714D01*
X172981714Y-130389333D01*
X172934095Y-130436952D01*
X169084762Y-121372381D02*
X169418095Y-122372381D01*
X169751429Y-121372381D01*
X170084762Y-122372381D02*
X170084762Y-121372381D01*
X170560952Y-122372381D02*
X170560952Y-121372381D01*
X171132381Y-122372381D01*
X171132381Y-121372381D01*
M02*
