G04 #@! TF.FileFunction,Soldermask,Top*
%FSLAX46Y46*%
G04 Gerber Fmt 4.6, Leading zero omitted, Abs format (unit mm)*
G04 Created by KiCad (PCBNEW 4.0.7) date 02/27/18 09:42:24*
%MOMM*%
%LPD*%
G01*
G04 APERTURE LIST*
%ADD10C,0.100000*%
%ADD11R,2.100000X2.100000*%
%ADD12O,2.100000X2.100000*%
G04 APERTURE END LIST*
D10*
D11*
X182880000Y-127000000D03*
D12*
X180340000Y-127000000D03*
D11*
X185420000Y-119380000D03*
D12*
X185420000Y-116840000D03*
X185420000Y-114300000D03*
X185420000Y-111760000D03*
X185420000Y-109220000D03*
X185420000Y-106680000D03*
X185420000Y-104140000D03*
X185420000Y-101600000D03*
X185420000Y-99060000D03*
X185420000Y-96520000D03*
X185420000Y-93980000D03*
X185420000Y-91440000D03*
X185420000Y-88900000D03*
X185420000Y-86360000D03*
X185420000Y-83820000D03*
D11*
X208280000Y-116840000D03*
D12*
X208280000Y-114300000D03*
X208280000Y-111760000D03*
X208280000Y-109220000D03*
X208280000Y-106680000D03*
X208280000Y-104140000D03*
X208280000Y-101600000D03*
X208280000Y-99060000D03*
D11*
X200660000Y-99060000D03*
D12*
X200660000Y-101600000D03*
X200660000Y-104140000D03*
X200660000Y-106680000D03*
X200660000Y-109220000D03*
X200660000Y-111760000D03*
X200660000Y-114300000D03*
X200660000Y-116840000D03*
D11*
X193040000Y-109220000D03*
D12*
X193040000Y-106680000D03*
D11*
X213360000Y-106680000D03*
D12*
X213360000Y-109220000D03*
D11*
X198120000Y-83820000D03*
D12*
X200660000Y-83820000D03*
X198120000Y-86360000D03*
X200660000Y-86360000D03*
X198120000Y-88900000D03*
X200660000Y-88900000D03*
X198120000Y-91440000D03*
X200660000Y-91440000D03*
D11*
X195580000Y-127000000D03*
D12*
X193040000Y-127000000D03*
X190500000Y-127000000D03*
D11*
X172720000Y-127000000D03*
D12*
X170180000Y-127000000D03*
D11*
X170180000Y-83820000D03*
D12*
X170180000Y-86360000D03*
X170180000Y-88900000D03*
X170180000Y-91440000D03*
X170180000Y-93980000D03*
X170180000Y-96520000D03*
X170180000Y-99060000D03*
X170180000Y-101600000D03*
X170180000Y-104140000D03*
X170180000Y-106680000D03*
X170180000Y-109220000D03*
X170180000Y-111760000D03*
X170180000Y-114300000D03*
X170180000Y-116840000D03*
X170180000Y-119380000D03*
M02*
