G04 #@! TF.FileFunction,Soldermask,Top*
%FSLAX46Y46*%
G04 Gerber Fmt 4.6, Leading zero omitted, Abs format (unit mm)*
G04 Created by KiCad (PCBNEW 4.0.7) date 02/27/18 11:15:34*
%MOMM*%
%LPD*%
G01*
G04 APERTURE LIST*
%ADD10C,0.100000*%
%ADD11R,2.100000X2.100000*%
%ADD12O,2.100000X2.100000*%
G04 APERTURE END LIST*
D10*
D11*
X205740000Y-55880000D03*
D12*
X203200000Y-55880000D03*
D11*
X161290000Y-76200000D03*
D12*
X163830000Y-76200000D03*
X166370000Y-76200000D03*
X168910000Y-76200000D03*
X171450000Y-76200000D03*
X173990000Y-76200000D03*
X176530000Y-76200000D03*
X179070000Y-76200000D03*
X181610000Y-76200000D03*
X184150000Y-76200000D03*
X186690000Y-76200000D03*
X189230000Y-76200000D03*
X191770000Y-76200000D03*
X194310000Y-76200000D03*
X196850000Y-76200000D03*
D11*
X196850000Y-60960000D03*
D12*
X194310000Y-60960000D03*
X191770000Y-60960000D03*
X189230000Y-60960000D03*
X186690000Y-60960000D03*
X184150000Y-60960000D03*
X181610000Y-60960000D03*
X179070000Y-60960000D03*
X176530000Y-60960000D03*
X173990000Y-60960000D03*
X171450000Y-60960000D03*
X168910000Y-60960000D03*
X166370000Y-60960000D03*
X163830000Y-60960000D03*
X161290000Y-60960000D03*
D11*
X209550000Y-71120000D03*
D12*
X207010000Y-71120000D03*
X209550000Y-68580000D03*
X207010000Y-68580000D03*
X209550000Y-66040000D03*
X207010000Y-66040000D03*
X209550000Y-63500000D03*
X207010000Y-63500000D03*
D11*
X195580000Y-55880000D03*
D12*
X193040000Y-55880000D03*
D11*
X186690000Y-80010000D03*
X166370000Y-57150000D03*
D12*
X168910000Y-57150000D03*
D11*
X165100000Y-88900000D03*
X172720000Y-88900000D03*
X205740000Y-93980000D03*
X200660000Y-99060000D03*
X190500000Y-93980000D03*
X195580000Y-83820000D03*
X160020000Y-88900000D03*
X177800000Y-88900000D03*
X210820000Y-93980000D03*
X195580000Y-99060000D03*
X185420000Y-93980000D03*
X200660000Y-83820000D03*
M02*
