G04 #@! TF.FileFunction,Copper,L1,Top,Signal*
%FSLAX46Y46*%
G04 Gerber Fmt 4.6, Leading zero omitted, Abs format (unit mm)*
G04 Created by KiCad (PCBNEW 4.0.7) date 02/27/18 11:15:34*
%MOMM*%
%LPD*%
G01*
G04 APERTURE LIST*
%ADD10C,0.100000*%
%ADD11R,1.700000X1.700000*%
%ADD12O,1.700000X1.700000*%
%ADD13C,0.250000*%
G04 APERTURE END LIST*
D10*
D11*
X205740000Y-55880000D03*
D12*
X203200000Y-55880000D03*
D11*
X161290000Y-76200000D03*
D12*
X163830000Y-76200000D03*
X166370000Y-76200000D03*
X168910000Y-76200000D03*
X171450000Y-76200000D03*
X173990000Y-76200000D03*
X176530000Y-76200000D03*
X179070000Y-76200000D03*
X181610000Y-76200000D03*
X184150000Y-76200000D03*
X186690000Y-76200000D03*
X189230000Y-76200000D03*
X191770000Y-76200000D03*
X194310000Y-76200000D03*
X196850000Y-76200000D03*
D11*
X196850000Y-60960000D03*
D12*
X194310000Y-60960000D03*
X191770000Y-60960000D03*
X189230000Y-60960000D03*
X186690000Y-60960000D03*
X184150000Y-60960000D03*
X181610000Y-60960000D03*
X179070000Y-60960000D03*
X176530000Y-60960000D03*
X173990000Y-60960000D03*
X171450000Y-60960000D03*
X168910000Y-60960000D03*
X166370000Y-60960000D03*
X163830000Y-60960000D03*
X161290000Y-60960000D03*
D11*
X209550000Y-71120000D03*
D12*
X207010000Y-71120000D03*
X209550000Y-68580000D03*
X207010000Y-68580000D03*
X209550000Y-66040000D03*
X207010000Y-66040000D03*
X209550000Y-63500000D03*
X207010000Y-63500000D03*
D11*
X195580000Y-55880000D03*
D12*
X193040000Y-55880000D03*
D11*
X186690000Y-80010000D03*
X166370000Y-57150000D03*
D12*
X168910000Y-57150000D03*
D11*
X165100000Y-88900000D03*
X172720000Y-88900000D03*
X205740000Y-93980000D03*
X200660000Y-99060000D03*
X190500000Y-93980000D03*
X195580000Y-83820000D03*
X160020000Y-88900000D03*
X177800000Y-88900000D03*
X210820000Y-93980000D03*
X195580000Y-99060000D03*
X185420000Y-93980000D03*
X200660000Y-83820000D03*
D13*
X172720000Y-88900000D02*
X165100000Y-88900000D01*
X205740000Y-55880000D02*
X205740000Y-62230000D01*
X205740000Y-62230000D02*
X207010000Y-63500000D01*
X207010000Y-63500000D02*
X201930000Y-63500000D01*
X201930000Y-63500000D02*
X195580000Y-69850000D01*
X195580000Y-69850000D02*
X175260000Y-69850000D01*
X175260000Y-69850000D02*
X168910000Y-76200000D01*
X203200000Y-55880000D02*
X195580000Y-55880000D01*
X160020000Y-88900000D02*
X160020000Y-87630000D01*
X160020000Y-87630000D02*
X171450000Y-76200000D01*
X177800000Y-88900000D02*
X177800000Y-80010000D01*
X177800000Y-80010000D02*
X173990000Y-76200000D01*
X210820000Y-93980000D02*
X210820000Y-102362000D01*
X180086000Y-79756000D02*
X176530000Y-76200000D01*
X180086000Y-100838000D02*
X180086000Y-79756000D01*
X181610000Y-102362000D02*
X180086000Y-100838000D01*
X210820000Y-102362000D02*
X181610000Y-102362000D01*
X195580000Y-99060000D02*
X183388000Y-99060000D01*
X181356000Y-78486000D02*
X179070000Y-76200000D01*
X181356000Y-97028000D02*
X181356000Y-78486000D01*
X183388000Y-99060000D02*
X181356000Y-97028000D01*
X185420000Y-93980000D02*
X185420000Y-87630000D01*
X183134000Y-77724000D02*
X181610000Y-76200000D01*
X183134000Y-85344000D02*
X183134000Y-77724000D01*
X185420000Y-87630000D02*
X183134000Y-85344000D01*
X207010000Y-66040000D02*
X201930000Y-66040000D01*
X193040000Y-72390000D02*
X189230000Y-76200000D01*
X195580000Y-72390000D02*
X193040000Y-72390000D01*
X201930000Y-66040000D02*
X195580000Y-72390000D01*
X209550000Y-66040000D02*
X213360000Y-66040000D01*
X191770000Y-80010000D02*
X191770000Y-76200000D01*
X213360000Y-80010000D02*
X191770000Y-80010000D01*
X213360000Y-66040000D02*
X213360000Y-80010000D01*
X209550000Y-68580000D02*
X212090000Y-68580000D01*
X194310000Y-78740000D02*
X194310000Y-76200000D01*
X212090000Y-78740000D02*
X194310000Y-78740000D01*
X212090000Y-68580000D02*
X212090000Y-78740000D01*
X207010000Y-71120000D02*
X201930000Y-71120000D01*
X201930000Y-71120000D02*
X196850000Y-76200000D01*
X193040000Y-55880000D02*
X172720000Y-55880000D01*
X161290000Y-57150000D02*
X161290000Y-60960000D01*
X163830000Y-54610000D02*
X161290000Y-57150000D01*
X171450000Y-54610000D02*
X163830000Y-54610000D01*
X172720000Y-55880000D02*
X171450000Y-54610000D01*
X200660000Y-83820000D02*
X200152000Y-83820000D01*
X200152000Y-83820000D02*
X197612000Y-81280000D01*
X197612000Y-81280000D02*
X189992000Y-81280000D01*
X189992000Y-81280000D02*
X187706000Y-83566000D01*
X187706000Y-83566000D02*
X184150000Y-83566000D01*
X184150000Y-83566000D02*
X184150000Y-76200000D01*
X186690000Y-80010000D02*
X186690000Y-76200000D01*
X190500000Y-93980000D02*
X190500000Y-88900000D01*
X190500000Y-88900000D02*
X195580000Y-83820000D01*
X200660000Y-99060000D02*
X200406000Y-99060000D01*
X200406000Y-99060000D02*
X195326000Y-93980000D01*
X195326000Y-93980000D02*
X190500000Y-93980000D01*
X205740000Y-93980000D02*
X200660000Y-99060000D01*
X166370000Y-57150000D02*
X166370000Y-58420000D01*
X166370000Y-58420000D02*
X163830000Y-60960000D01*
X168910000Y-57150000D02*
X168910000Y-60960000D01*
X169164000Y-60706000D02*
X168910000Y-60960000D01*
M02*
