M48
;DRILL file {KiCad 4.0.7} date 02/27/18 11:15:40
;FORMAT={-:-/ absolute / inch / decimal}
FMAT,2
INCH,TZ
T1C0.039
%
G90
G05
M72
T1
X6.3Y-3.5
X6.35Y-2.4
X6.35Y-3.
X6.45Y-2.4
X6.45Y-3.
X6.5Y-3.5
X6.55Y-2.25
X6.55Y-2.4
X6.55Y-3.
X6.65Y-2.25
X6.65Y-2.4
X6.65Y-3.
X6.75Y-2.4
X6.75Y-3.
X6.8Y-3.5
X6.85Y-2.4
X6.85Y-3.
X6.95Y-2.4
X6.95Y-3.
X7.Y-3.5
X7.05Y-2.4
X7.05Y-3.
X7.15Y-2.4
X7.15Y-3.
X7.25Y-2.4
X7.25Y-3.
X7.3Y-3.7
X7.35Y-2.4
X7.35Y-3.
X7.35Y-3.15
X7.45Y-2.4
X7.45Y-3.
X7.5Y-3.7
X7.55Y-2.4
X7.55Y-3.
X7.6Y-2.2
X7.65Y-2.4
X7.65Y-3.
X7.7Y-2.2
X7.7Y-3.3
X7.7Y-3.9
X7.75Y-2.4
X7.75Y-3.
X7.9Y-3.3
X7.9Y-3.9
X8.Y-2.2
X8.1Y-2.2
X8.1Y-3.7
X8.15Y-2.5
X8.15Y-2.6
X8.15Y-2.7
X8.15Y-2.8
X8.25Y-2.5
X8.25Y-2.6
X8.25Y-2.7
X8.25Y-2.8
X8.3Y-3.7
T0
M30
